<svg xmlns="http://www.w3.org/2000/svg" width="374" height="183.999" viewBox="0 0 374 183.999">
  <defs>
    <style>
      .cls-1 {
        fill: #fff;
      }
    </style>
  </defs>
  <g id="그룹_19748" data-name="그룹 19748" transform="translate(-466.861 -492.483)">
    <path id="사각형_5912" data-name="사각형 5912" class="cls-1" d="M984.619,734.142h0a9.3,9.3,0,0,1-12.724,3.422l-79.1-45.828a9.365,9.365,0,0,1-3.41-12.768h0a9.3,9.3,0,0,1,12.725-3.422l79.1,45.827A9.365,9.365,0,0,1,984.619,734.142Z" transform="translate(-145.008 -62.335)"/>
    <g id="그룹_19749" data-name="그룹 19749" transform="translate(466.861 560.523)">
      <g id="그룹_19748-2" data-name="그룹 19748">
        <path id="패스_26202" data-name="패스 26202" class="cls-1" d="M466.861,597.161h9.761v39.478h-9.761Z" transform="translate(-466.861 -596.413)"/>
        <path id="패스_26203" data-name="패스 26203" class="cls-1" d="M503.479,597.161h9.958l14.173,21.023,4.879,8.535h.328a114.629,114.629,0,0,1-1.254-13.817v-15.74h9.231v39.478h-9.887L516.8,615.513l-4.944-8.48h-.328a132.663,132.663,0,0,1,1.187,13.764V636.64h-9.233Z" transform="translate(-479.416 -596.413)"/>
        <path id="패스_26204" data-name="패스 26204" class="cls-1" d="M582.135,597.161H612.2v6.56H591.892v10.3h17.344v6.615H591.9v16.005h-9.761Z" transform="translate(-506.383 -596.413)"/>
        <path id="패스_26205" data-name="패스 26205" class="cls-1" d="M639.421,616.35c0-12.858,8.9-20.327,21.824-20.327s21.824,7.523,21.824,20.327S674.167,637,661.245,637,639.421,629.155,639.421,616.35Zm33.692,0c0-8.48-4.615-13.551-11.867-13.551s-11.868,5.069-11.868,13.551c0,8.43,4.615,13.818,11.868,13.818S673.113,624.779,673.113,616.35Z" transform="translate(-526.025 -596.023)"/>
        <path id="패스_26206" data-name="패스 26206" class="cls-1" d="M723.9,597.161h9.761v39.478H723.9Z" transform="translate(-554.988 -596.413)"/>
        <path id="패스_26207" data-name="패스 26207" class="cls-1" d="M760.513,597.161h9.958l14.171,21.023,4.879,8.535h.327A115.585,115.585,0,0,1,788.6,612.9v-15.74h9.231v39.478h-9.893l-14.1-21.126-4.946-8.48h-.327a132.681,132.681,0,0,1,1.186,13.764V636.64h-9.23Z" transform="translate(-567.542 -596.413)"/>
      </g>
    </g>
    <path id="사각형_5913" data-name="사각형 5913" class="cls-1" d="M870.692,492.483h0a8.6,8.6,0,0,1,8.584,8.614V610.419a8.6,8.6,0,0,1-8.584,8.614h0a8.6,8.6,0,0,1-8.584-8.614V501.1A8.6,8.6,0,0,1,870.692,492.483Z" transform="translate(-135.928)"/>
    <path id="사각형_5914" data-name="사각형 5914" class="cls-1" d="M741.805,718.541h0a8.634,8.634,0,0,1,3.091-11.784L824.8,659.982a8.57,8.57,0,0,1,11.743,3.1h0a8.633,8.633,0,0,1-3.091,11.784l-79.907,46.775A8.57,8.57,0,0,1,741.805,718.541Z" transform="translate(-94.235 -57.026)"/>
    <ellipse id="타원_657" data-name="타원 657" class="cls-1" cx="8.585" cy="8.614" rx="8.585" ry="8.614" transform="translate(726.25 601.808)"/>
  </g>
</svg>
